<svg width="6385" height="6351" viewBox="0 0 6385 6351" fill="none" xmlns="http://www.w3.org/2000/svg">
<g clip-path="url(#clip0_2009_4731)">
<path d="M2651.32 1.21004C2629.22 6.11004 2609.22 17.21 2591.12 34.51C2575.72 49.41 2565.72 63.61 2558.72 81.01C2554.92 90.41 2554.32 91.11 2554.32 86.41C2554.32 83.81 2553.92 82.71 2552.82 82.71C2551.52 82.71 2551.32 411.01 2551.32 3031.71C2551.32 5652.41 2551.52 5980.71 2552.82 5980.71C2553.82 5980.71 2554.32 5979.21 2554.52 5974.91L2554.82 5969.21L2557.72 5977.71C2563.72 5995.61 2573.22 6011.41 2585.82 6024.61C2619.22 6059.71 2670.22 6072.51 2715.82 6057.31C2754.02 6044.51 2782.12 6016.71 2795.22 5978.71L2798.22 5970.21V5975.51C2798.32 5980.01 2798.62 5980.81 2800.12 5980.51C2801.72 5980.21 2801.82 5839.01 2801.82 3031.71C2801.82 224.41 2801.72 83.21 2800.12 82.91C2798.62 82.61 2798.32 83.31 2798.22 86.41V90.21L2796.32 84.91C2793.42 76.91 2784.82 60.91 2779.12 53.21C2776.32 49.31 2769.42 41.71 2763.92 36.21C2748.02 20.41 2729.42 9.11004 2709.72 3.11004C2701.42 0.610044 2699.32 0.310044 2679.32 0.110044C2663.32 -0.189956 2656.12 0.110044 2651.32 1.21004V1.21004Z" fill="#F9F9F9"/>
<path d="M3392.42 1.21004C3377.62 4.51004 3364.42 10.41 3350.12 19.91C3339.62 26.91 3323.22 42.71 3315.52 53.21C3309.82 60.91 3301.22 76.91 3298.32 84.91L3296.42 90.21V86.41C3296.32 83.31 3296.02 82.61 3294.62 82.91C3292.92 83.21 3292.82 224.41 3292.82 3031.71C3292.82 5839.01 3292.92 5980.21 3294.62 5980.51C3296.02 5980.81 3296.32 5980.01 3296.42 5975.51V5970.21L3299.42 5978.71C3321.92 6043.81 3390.72 6078.41 3456.12 6057.61C3494.42 6045.41 3523.92 6016.21 3536.92 5977.71L3539.82 5969.21L3540.12 5975.01C3540.32 5979.21 3540.82 5980.71 3541.82 5980.71C3543.12 5980.71 3543.32 5607.31 3543.32 3031.71C3543.32 456.11 3543.12 82.71 3541.82 82.71C3540.72 82.71 3540.32 83.81 3540.32 86.41C3540.32 90.81 3539.12 89.91 3537.32 84.21C3535.12 77.21 3526.32 61.21 3519.82 52.51C3516.32 47.91 3509.02 39.81 3503.52 34.61C3487.52 19.21 3470.62 9.11004 3450.82 3.11004C3442.42 0.510044 3440.42 0.310044 3420.32 0.110044C3404.32 -0.189956 3397.22 0.110044 3392.42 1.21004V1.21004Z" fill="#F9F9F9"/>
<path d="M1908.82 228.31C1864.52 237.71 1821.32 281.11 1811.72 325.71C1810.52 331.31 1810.32 725.81 1810.32 3027.81C1810.32 5444.31 1810.52 5724.41 1811.82 5732.31C1816.42 5758.61 1828.42 5781.91 1846.82 5800.21C1883.82 5836.81 1939.42 5847.01 1986.82 5825.71C2024.82 5808.71 2051.72 5773.91 2058.72 5732.81C2060.22 5724.11 2060.32 5501.51 2060.32 3027.81C2060.32 725.81 2060.12 331.31 2058.92 325.71C2049.22 280.71 2005.72 237.41 1961.12 228.31C1950.82 226.21 1918.82 226.21 1908.82 228.31V228.31Z" fill="#F9F9F9"/>
<path d="M4132.82 228.31C4088.52 237.71 4045.32 281.11 4035.72 325.71C4034.52 331.31 4034.32 725.81 4034.32 3027.81C4034.32 5501.51 4034.42 5724.11 4035.92 5732.81C4042.92 5773.91 4069.82 5808.71 4107.82 5825.71C4155.22 5847.01 4210.82 5836.81 4247.82 5800.21C4266.02 5782.21 4278.32 5758.31 4282.72 5732.81C4284.22 5724.11 4284.32 5501.51 4284.32 3027.81C4284.32 725.81 4284.12 331.31 4282.92 325.71C4273.22 280.71 4229.72 237.41 4185.12 228.31C4174.82 226.21 4142.82 226.21 4132.82 228.31V228.31Z" fill="#F9F9F9"/>
<path d="M1174.92 709.81C1157.82 712.31 1136.32 721.71 1121.32 733.01C1110.32 741.31 1095.32 757.01 1088.52 767.21C1081.12 778.31 1074.82 791.81 1071.52 803.41L1068.82 813.21V5250.21L1071.52 5260.01C1077.02 5279.61 1087.72 5297.81 1103.32 5314.01C1115.72 5327.01 1127.12 5335.51 1141.82 5342.81C1158.32 5350.91 1169.52 5353.71 1188.32 5354.31C1211.82 5355.11 1226.92 5352.21 1244.82 5343.71C1282.32 5325.71 1312.62 5287.41 1318.22 5250.61C1319.12 5245.01 1319.32 4695.21 1319.12 3027.21L1318.82 811.21L1316.62 803.51C1303.72 759.71 1266.42 723.11 1222.52 711.61C1213.82 709.31 1185.42 708.21 1174.92 709.81V709.81Z" fill="#F9F9F9"/>
<path d="M4880.82 709.81C4832.22 716.91 4783.82 764.71 4776.42 812.81C4775.52 818.41 4775.32 1368.21 4775.52 3036.21L4775.82 5252.21L4778.02 5259.91C4790.92 5303.71 4827.82 5339.91 4872.12 5351.91C4878.72 5353.71 4882.72 5354.01 4900.32 5354.01C4919.42 5354.01 4921.52 5353.81 4930.82 5351.41C4943.62 5347.91 4962.32 5338.71 4973.32 5330.41C4984.32 5322.11 4999.32 5306.41 5006.12 5296.21C5013.52 5285.11 5019.82 5271.61 5023.12 5260.01L5025.82 5250.21V813.21L5023.12 803.41C5017.62 783.81 5006.92 765.61 4991.32 749.41C4978.92 736.41 4967.52 727.91 4952.82 720.61C4935.22 711.91 4925.22 709.61 4903.82 709.21C4894.52 709.01 4884.12 709.31 4880.82 709.81V709.81Z" fill="#F9F9F9"/>
<path d="M427.02 1730.31C403.72 1735.31 381.32 1748.51 362.12 1768.61C346.92 1784.41 336.92 1801.11 330.62 1821.21L327.82 1830.21V4233.21L330.62 4242.21C336.92 4262.11 346.82 4278.91 361.72 4294.41C381.32 4314.91 404.02 4328.21 427.62 4333.11C438.02 4335.31 467.52 4335.31 478.12 4333.11C524.52 4323.71 568.72 4278.31 576.82 4231.81C578.12 4224.51 578.32 4074.91 578.32 3031.71C578.32 1988.51 578.12 1838.91 576.82 1831.61C568.82 1785.51 525.72 1740.91 479.42 1730.71C468.52 1728.21 437.72 1728.01 427.02 1730.31V1730.31Z" fill="#F9F9F9"/>
<path d="M5615.82 1730.31C5569.42 1740.51 5525.82 1785.51 5517.82 1831.61C5516.52 1838.91 5516.32 1988.51 5516.32 3031.71C5516.32 4074.91 5516.52 4224.51 5517.82 4231.81C5525.92 4278.31 5570.12 4323.71 5616.52 4333.11C5627.12 4335.31 5656.62 4335.31 5667.02 4333.11C5690.62 4328.21 5713.32 4314.91 5732.92 4294.41C5747.82 4278.91 5757.72 4262.11 5764.02 4242.21L5766.82 4233.21V1830.21L5764.02 1821.21C5760.22 1808.71 5751.62 1791.81 5743.92 1781.71C5735.72 1770.81 5720.02 1755.71 5709.82 1748.91C5699.22 1741.81 5685.82 1735.41 5674.82 1732.11C5666.42 1729.61 5664.32 1729.31 5644.32 1729.11C5627.82 1728.81 5621.22 1729.11 5615.82 1730.31V1730.31Z" fill="#F9F9F9"/>
<path d="M5988.82 5610.81C5930.62 5613.61 5865.52 5635.31 5810.02 5670.41C5731.32 5720.21 5673.62 5801.61 5650.42 5895.71C5643.12 5924.91 5640.32 5948.61 5640.32 5980.21C5640.32 6019.31 5644.82 6049.51 5656.02 6085.71C5674.32 6145.01 5706.52 6199.01 5748.82 6241.21C5806.12 6298.51 5883.82 6336.81 5966.32 6348.21C5982.22 6350.41 6025.42 6351.31 6043.52 6349.81C6118.02 6343.51 6194.42 6311.71 6254.02 6262.21C6319.82 6207.51 6368.02 6121.01 6381.32 6033.81C6385.72 6004.71 6386.32 5966.41 6382.82 5937.71C6372.62 5855.61 6332.22 5773.81 6273.62 5716.61C6215.52 5659.91 6133.92 5621.21 6053.82 5612.31C6037.62 5610.51 6009.02 5609.81 5988.82 5610.81V5610.81Z" fill="#F9F9F9"/>
</g>
<defs>
<clipPath id="clip0_2009_4731">
<rect width="6385" height="6351" fill="white"/>
</clipPath>
</defs>
</svg>
